<svg width="64" height="64" viewBox="0 0 64 64" fill="none" xmlns="http://www.w3.org/2000/svg">
<rect width="64" height="64" fill="#171718"/>
<path transform="translate(32 34) scale(0.8) translate(-32 -32)" d="M35.0176 20.042C34.9508 24.0031 34.8791 25.9581 36.2256 29.209C38.0924 33.716 41.4755 36.8896 45.7256 38.6533C46.965 39.1676 48.7645 39.5707 50.3896 39.7314L51.0732 39.7852L53.3174 39.9131L53.4277 42.1572C53.4607 42.8241 53.4783 43.5401 53.499 44.1445L53.5928 46.9072L50.835 46.7246C49.8962 46.6625 48.6594 46.5421 47.4287 46.3447C46.24 46.1541 44.884 45.8659 43.8008 45.4131C38.7301 43.2934 34.3884 40.0284 31.4805 35.1406C28.5767 40.0279 24.5137 43.1579 19.2705 45.3887C19.2653 45.391 19.2601 45.3932 19.2549 45.3955C19.2479 45.3985 19.2413 45.4023 19.2344 45.4053L19.2334 45.4043C18.1591 45.8722 16.7265 46.14 15.5576 46.3076C14.2994 46.4881 13.0355 46.5937 12.1787 46.6523L9.51953 46.835L9.50781 44.1689L9.5 42.3164L9.49023 39.9229L11.8809 39.8086C12.3033 39.7883 13.4161 39.6163 14.6777 39.3506C15.977 39.0769 16.9758 38.7986 17.2744 38.666L17.3115 38.6494L17.3496 38.6338C19.6801 37.6879 21.8112 36.1982 23.5879 34.2529C26.0063 31.592 27.6337 28.1398 28.0967 24.3926C28.2233 23.3665 28.1719 21.4995 28.165 20.0146L28.1533 17.5059L30.6611 17.5029L32.5146 17.5L35.0605 17.4961L35.0176 20.042Z" fill="#27CFCE" stroke="#27CFCE" stroke-width="5"/>
</svg>
