<svg width="800" height="800" viewBox="0 0 800 800" fill="none" xmlns="http://www.w3.org/2000/svg">
<rect width="800" height="800" fill="#171718"/>
<path d="M418.429 388.236C419.256 388.08 422.091 388.04 423.086 388.005L423.256 474.004L413.596 474.015L413.666 465.917C403.814 477.639 389.507 477.74 377.193 470.262C355.176 453.151 365.753 415.897 395.096 417.489C402.855 417.911 407.725 419.678 413.093 425.38L413.061 402.418C413.058 398.742 412.871 392.808 413.328 389.324C414.748 388.383 416.67 388.405 418.429 388.236Z" fill="#FEFEFE"/>
<path d="M393.408 427.369C403.934 426.672 413.028 434.65 413.708 445.178C414.387 455.705 406.394 464.786 395.865 465.448C385.361 466.108 376.307 458.138 375.629 447.635C374.951 437.132 382.906 428.064 393.408 427.369Z" fill="#171718"/>
<path d="M461.831 416.788C478.126 414.633 493.099 426.055 495.326 442.341C497.553 458.627 486.197 473.649 469.921 475.948C453.543 478.262 438.406 466.819 436.164 450.431C433.923 434.043 445.433 418.956 461.831 416.788Z" fill="#FEFEFE"/>
<path d="M461.358 427.299C471.927 424.865 482.477 431.425 484.969 441.98C487.462 452.535 480.961 463.121 470.42 465.672C459.795 468.243 449.107 461.68 446.595 451.041C444.083 440.403 450.706 429.752 461.358 427.299Z" fill="#171718"/>
<path d="M331.099 417.247C354.894 417.568 354.625 434.009 354.134 452.412C353.949 459.375 354.099 466.861 354.083 473.867L344.1 473.874C343.992 462.674 345.24 447.011 343.26 436.082C341.526 426.52 330.726 425.743 322.436 428.812C310.816 435.474 313.844 446.816 313.549 458.088C313.411 463.337 313.577 468.744 313.589 474.002L303.542 474L303.562 418.96L313.203 418.927L313.235 426.93C318.611 418.897 321.783 418.139 331.099 417.247Z" fill="#FEFEFE"/>
<path d="M277.936 418.703C281.141 418.618 284.34 418.749 287.546 418.837L287.538 474.031L277.609 474.072L277.65 466.231C276.92 467.129 276.165 468.007 275.385 468.863C267.805 477.066 251.422 478.284 243.218 470.261C236.557 463.746 237.409 454.078 237.567 445.515L237.69 418.986L247.628 418.988C247.607 423.004 247.217 428.405 247.562 432.524C248.447 443.093 243.102 465.186 259.264 466.069C266.672 466.474 276.072 461.241 277.101 453.407C278.544 442.423 277.923 430.014 277.936 418.703Z" fill="#FEFEFE"/>
<path d="M548.286 418.766C551.328 418.613 555.056 418.692 558.154 418.678L558.098 474.048L548.466 474.042L548.523 465.004C547.551 466.353 546.385 468.004 545.244 469.224C537.814 477.169 521.242 477.76 513.528 469.914C507.742 464.03 508.113 455.427 508.135 447.669L508.228 419.036L518.084 418.985C518.141 431.278 517.259 444.159 518.612 456.261C519.923 462.481 524.395 466.101 530.358 465.943C549.613 465.434 548.696 450.458 548.293 435.954C548.147 430.697 548.26 424.281 548.286 418.766Z" fill="#FEFEFE"/>
<path d="M218.551 388.182C225.135 387.837 226.436 387.823 232.752 389.596L231.14 398.715C211.796 394.24 212.854 403.629 213.004 418.997L228.619 419.003C228.599 422.149 228.446 425.416 228.339 428.572L213.167 428.635L213.162 464.144L213.151 474.02L203.06 474.017L203.086 428.886C199.37 428.905 195.738 428.773 192.024 428.649L192 418.664C194.857 418.778 199.337 419.19 201.869 418.474C207.133 412.382 194.959 394.099 218.551 388.182Z" fill="#FEFEFE"/>
<path d="M587.53 402.263C588.767 402.004 588.441 402.08 589.751 402.183C591.127 404.265 590.441 415.228 590.376 418.688C596.213 418.64 602.051 418.674 607.887 418.791L607.805 428.605L590.125 428.571C590.127 437.17 589.154 450.633 590.685 458.915C592.335 467.835 601.936 466.027 608.716 463.599L608.74 473.672C584.515 480.692 578.661 466.862 580.135 446.204C580.509 440.971 580.186 433.896 580.214 428.485L569.144 428.58L569.138 418.768L580.041 418.799C580.159 413.686 580.112 408.32 580.136 403.185C582.435 402.784 585.179 402.536 587.53 402.263Z" fill="#FEFEFE"/>
<path d="M394.668 204.014L405.504 204C405.114 225.308 404.523 238.409 413.678 258.781C426.161 286.56 448.908 306.174 477.123 316.966C477.289 306.851 477.289 296.735 477.122 286.62L486.152 286.638C485.994 297.545 486.106 308.779 486.097 319.707C497.398 322.274 501.473 323.458 513.162 324.072C513.348 327.535 513.436 331.105 513.565 334.579C503.241 333.949 496.13 333.308 486.041 330.823L486.057 365.279L476.969 365.321L477.108 328.522C442.591 315.223 415.341 293.371 401.486 258.151C400.931 256.656 400.212 255.007 399.603 253.516C398.841 255.485 398.033 257.436 397.18 259.368C381.775 294.672 357.315 314.749 322.124 328.508L322.175 365.371L313.359 365.383C313.212 354.042 313.418 342.214 313.457 330.835C303.919 332.96 295.251 333.581 285.582 334.191L285.536 324.206C293.021 323.876 306.664 322.103 313.398 319.346L313.269 286.627L322.163 286.651L322.309 316.904C338.021 311.027 352.273 301.812 364.081 289.896C380.243 273.516 391.075 252.323 394.158 229.325C395.05 222.668 394.704 211.174 394.668 204.014Z" fill="#27CFCE"/>
<path d="M477.016 243L486.072 243.001L486.229 274.126L477 274.131L477.016 243Z" fill="#27CFCE"/>
<path d="M313.032 243.029L321.777 243L321.822 274.055L313 274.047L313.032 243.029Z" fill="#27CFCE"/>
<path d="M220.92 525V507.72H222.684V525H220.92ZM233.338 525C232.61 525.152 231.89 525.212 231.178 525.18C230.474 525.148 229.842 524.996 229.282 524.724C228.73 524.452 228.31 524.028 228.022 523.452C227.79 522.972 227.662 522.488 227.638 522C227.622 521.504 227.614 520.94 227.614 520.308V508.44H229.366V520.236C229.366 520.78 229.37 521.236 229.378 521.604C229.394 521.964 229.478 522.284 229.63 522.564C229.918 523.1 230.374 523.42 230.998 523.524C231.63 523.628 232.41 523.604 233.338 523.452V525ZM224.842 513.552V512.04H233.338V513.552H224.842ZM235.891 512.76L235.999 511.884C236.319 511.908 236.551 511.844 236.695 511.692C236.839 511.54 236.927 511.336 236.959 511.08C236.991 510.824 236.999 510.548 236.983 510.252H235.891V507.72H237.943V510.732C237.943 511.468 237.755 512.02 237.379 512.388C237.011 512.756 236.515 512.88 235.891 512.76ZM244.125 525.348C242.605 525.348 241.353 525.02 240.369 524.364C239.393 523.708 238.793 522.796 238.569 521.628L240.369 521.328C240.561 522.064 240.997 522.652 241.677 523.092C242.365 523.524 243.213 523.74 244.221 523.74C245.205 523.74 245.981 523.536 246.549 523.128C247.117 522.712 247.401 522.148 247.401 521.436C247.401 521.036 247.309 520.712 247.125 520.464C246.949 520.208 246.585 519.972 246.033 519.756C245.481 519.54 244.657 519.284 243.561 518.988C242.385 518.668 241.465 518.348 240.801 518.028C240.137 517.708 239.665 517.34 239.385 516.924C239.105 516.5 238.965 515.984 238.965 515.376C238.965 514.64 239.173 513.996 239.589 513.444C240.005 512.884 240.581 512.452 241.317 512.148C242.053 511.836 242.909 511.68 243.885 511.68C244.861 511.68 245.733 511.84 246.501 512.16C247.277 512.472 247.901 512.912 248.373 513.48C248.845 514.048 249.125 514.708 249.213 515.46L247.413 515.784C247.293 515.024 246.913 514.424 246.273 513.984C245.641 513.536 244.837 513.304 243.861 513.288C242.941 513.264 242.193 513.44 241.617 513.816C241.041 514.184 240.753 514.676 240.753 515.292C240.753 515.636 240.857 515.932 241.065 516.18C241.273 516.42 241.649 516.648 242.193 516.864C242.745 517.08 243.529 517.316 244.545 517.572C245.737 517.876 246.673 518.196 247.353 518.532C248.033 518.868 248.517 519.264 248.805 519.72C249.093 520.176 249.237 520.74 249.237 521.412C249.237 522.636 248.781 523.6 247.869 524.304C246.965 525 245.717 525.348 244.125 525.348ZM266.063 525V518.388C266.063 517.668 265.995 517.008 265.859 516.408C265.723 515.8 265.503 515.272 265.199 514.824C264.903 514.368 264.515 514.016 264.035 513.768C263.563 513.52 262.987 513.396 262.307 513.396C261.683 513.396 261.131 513.504 260.651 513.72C260.179 513.936 259.779 514.248 259.451 514.656C259.131 515.056 258.887 515.544 258.719 516.12C258.551 516.696 258.467 517.352 258.467 518.088L257.219 517.812C257.219 516.484 257.451 515.368 257.915 514.464C258.379 513.56 259.019 512.876 259.835 512.412C260.651 511.948 261.587 511.716 262.643 511.716C263.419 511.716 264.095 511.836 264.671 512.076C265.255 512.316 265.747 512.64 266.147 513.048C266.555 513.456 266.883 513.924 267.131 514.452C267.379 514.972 267.559 515.528 267.671 516.12C267.783 516.704 267.839 517.288 267.839 517.872V525H266.063ZM256.691 525V512.04H258.287V515.232H258.467V525H256.691ZM276.295 525.36C275.007 525.36 273.907 525.068 272.995 524.484C272.083 523.9 271.383 523.092 270.895 522.06C270.407 521.028 270.163 519.844 270.163 518.508C270.163 517.148 270.411 515.956 270.907 514.932C271.403 513.908 272.107 513.112 273.019 512.544C273.939 511.968 275.031 511.68 276.295 511.68C277.591 511.68 278.695 511.972 279.607 512.556C280.527 513.132 281.227 513.936 281.707 514.968C282.195 515.992 282.439 517.172 282.439 518.508C282.439 519.868 282.195 521.064 281.707 522.096C281.219 523.12 280.515 523.92 279.595 524.496C278.675 525.072 277.575 525.36 276.295 525.36ZM276.295 523.668C277.735 523.668 278.807 523.192 279.511 522.24C280.215 521.28 280.567 520.036 280.567 518.508C280.567 516.94 280.211 515.692 279.499 514.764C278.795 513.836 277.727 513.372 276.295 513.372C275.327 513.372 274.527 513.592 273.895 514.032C273.271 514.464 272.803 515.068 272.491 515.844C272.187 516.612 272.035 517.5 272.035 518.508C272.035 520.068 272.395 521.32 273.115 522.264C273.835 523.2 274.895 523.668 276.295 523.668ZM292.142 525C291.414 525.152 290.694 525.212 289.982 525.18C289.278 525.148 288.646 524.996 288.086 524.724C287.534 524.452 287.114 524.028 286.826 523.452C286.594 522.972 286.466 522.488 286.442 522C286.426 521.504 286.418 520.94 286.418 520.308V508.44H288.17V520.236C288.17 520.78 288.174 521.236 288.182 521.604C288.198 521.964 288.282 522.284 288.434 522.564C288.722 523.1 289.178 523.42 289.802 523.524C290.434 523.628 291.214 523.604 292.142 523.452V525ZM283.646 513.552V512.04H292.142V513.552H283.646ZM301.348 530.76L303.856 523.956L303.892 525.972L298.216 512.04H300.088L304.744 523.692H303.976L308.272 512.04H310.072L303.112 530.76H301.348ZM317.1 525.36C315.812 525.36 314.712 525.068 313.8 524.484C312.888 523.9 312.188 523.092 311.7 522.06C311.212 521.028 310.968 519.844 310.968 518.508C310.968 517.148 311.216 515.956 311.712 514.932C312.208 513.908 312.912 513.112 313.824 512.544C314.744 511.968 315.836 511.68 317.1 511.68C318.396 511.68 319.5 511.972 320.412 512.556C321.332 513.132 322.032 513.936 322.512 514.968C323 515.992 323.244 517.172 323.244 518.508C323.244 519.868 323 521.064 322.512 522.096C322.024 523.12 321.32 523.92 320.4 524.496C319.48 525.072 318.38 525.36 317.1 525.36ZM317.1 523.668C318.54 523.668 319.612 523.192 320.316 522.24C321.02 521.28 321.372 520.036 321.372 518.508C321.372 516.94 321.016 515.692 320.304 514.764C319.6 513.836 318.532 513.372 317.1 513.372C316.132 513.372 315.332 513.592 314.7 514.032C314.076 514.464 313.608 515.068 313.296 515.844C312.992 516.612 312.84 517.5 312.84 518.508C312.84 520.068 313.2 521.32 313.92 522.264C314.64 523.2 315.7 523.668 317.1 523.668ZM330.847 525.324C330.071 525.324 329.391 525.204 328.807 524.964C328.231 524.724 327.739 524.4 327.331 523.992C326.931 523.584 326.607 523.12 326.359 522.6C326.111 522.072 325.931 521.516 325.819 520.932C325.707 520.34 325.651 519.752 325.651 519.168V512.04H327.427V518.652C327.427 519.364 327.495 520.024 327.631 520.632C327.767 521.24 327.983 521.772 328.279 522.228C328.583 522.676 328.971 523.024 329.443 523.272C329.923 523.52 330.503 523.644 331.183 523.644C331.807 523.644 332.355 523.536 332.827 523.32C333.307 523.104 333.707 522.796 334.027 522.396C334.355 521.988 334.603 521.496 334.771 520.92C334.939 520.336 335.023 519.68 335.023 518.952L336.271 519.228C336.271 520.556 336.039 521.672 335.575 522.576C335.111 523.48 334.471 524.164 333.655 524.628C332.839 525.092 331.903 525.324 330.847 525.324ZM335.203 525V521.808H335.023V512.04H336.787V525H335.203ZM340.141 525V512.04H341.725V515.16L341.413 514.752C341.557 514.368 341.745 514.016 341.977 513.696C342.209 513.368 342.461 513.1 342.733 512.892C343.069 512.596 343.461 512.372 343.909 512.22C344.357 512.06 344.809 511.968 345.265 511.944C345.721 511.912 346.137 511.944 346.513 512.04V513.696C346.041 513.576 345.525 513.548 344.965 513.612C344.405 513.676 343.889 513.9 343.417 514.284C342.985 514.62 342.661 515.024 342.445 515.496C342.229 515.96 342.085 516.456 342.013 516.984C341.941 517.504 341.905 518.02 341.905 518.532V525H340.141ZM361.19 525C360.334 525.16 359.494 525.228 358.67 525.204C357.854 525.188 357.122 525.04 356.474 524.76C355.826 524.472 355.334 524.02 354.998 523.404C354.702 522.844 354.546 522.272 354.53 521.688C354.514 521.104 354.506 520.444 354.506 519.708V508.44H357.386V519.54C357.386 520.06 357.39 520.516 357.398 520.908C357.414 521.3 357.498 521.62 357.65 521.868C357.938 522.348 358.398 522.616 359.03 522.672C359.662 522.728 360.382 522.696 361.19 522.576V525ZM352.154 514.308V512.04H361.19V514.308H352.154ZM363.977 525V512.04H366.533V515.196L366.221 514.788C366.381 514.356 366.593 513.964 366.857 513.612C367.129 513.252 367.453 512.956 367.829 512.724C368.149 512.508 368.501 512.34 368.885 512.22C369.277 512.092 369.677 512.016 370.085 511.992C370.493 511.96 370.889 511.976 371.273 512.04V514.74C370.889 514.628 370.445 514.592 369.941 514.632C369.445 514.672 368.997 514.812 368.597 515.052C368.197 515.268 367.869 515.544 367.613 515.88C367.365 516.216 367.181 516.6 367.061 517.032C366.941 517.456 366.881 517.916 366.881 518.412V525H363.977ZM376.882 525.36C375.946 525.36 375.154 525.184 374.506 524.832C373.858 524.472 373.366 523.996 373.03 523.404C372.702 522.812 372.538 522.16 372.538 521.448C372.538 520.824 372.642 520.264 372.85 519.768C373.058 519.264 373.378 518.832 373.81 518.472C374.242 518.104 374.802 517.804 375.49 517.572C376.01 517.404 376.618 517.252 377.314 517.116C378.018 516.98 378.778 516.856 379.594 516.744C380.418 516.624 381.278 516.496 382.174 516.36L381.142 516.948C381.15 516.052 380.95 515.392 380.542 514.968C380.134 514.544 379.446 514.332 378.478 514.332C377.894 514.332 377.33 514.468 376.786 514.74C376.242 515.012 375.862 515.48 375.646 516.144L373.006 515.316C373.326 514.22 373.934 513.34 374.83 512.676C375.734 512.012 376.95 511.68 378.478 511.68C379.63 511.68 380.642 511.868 381.514 512.244C382.394 512.62 383.046 513.236 383.47 514.092C383.702 514.548 383.842 515.016 383.89 515.496C383.938 515.968 383.962 516.484 383.962 517.044V525H381.43V522.192L381.85 522.648C381.266 523.584 380.582 524.272 379.798 524.712C379.022 525.144 378.05 525.36 376.882 525.36ZM377.458 523.056C378.114 523.056 378.674 522.94 379.138 522.708C379.602 522.476 379.97 522.192 380.242 521.856C380.522 521.52 380.71 521.204 380.806 520.908C380.958 520.54 381.042 520.12 381.058 519.648C381.082 519.168 381.094 518.78 381.094 518.484L381.982 518.748C381.11 518.884 380.362 519.004 379.738 519.108C379.114 519.212 378.578 519.312 378.13 519.408C377.682 519.496 377.286 519.596 376.942 519.708C376.606 519.828 376.322 519.968 376.09 520.128C375.858 520.288 375.678 520.472 375.55 520.68C375.43 520.888 375.37 521.132 375.37 521.412C375.37 521.732 375.45 522.016 375.61 522.264C375.77 522.504 376.002 522.696 376.306 522.84C376.618 522.984 377.002 523.056 377.458 523.056ZM392.282 525.36C391.09 525.36 390.05 525.06 389.162 524.46C388.274 523.86 387.586 523.044 387.098 522.012C386.61 520.98 386.366 519.816 386.366 518.52C386.366 517.208 386.61 516.04 387.098 515.016C387.594 513.984 388.294 513.172 389.198 512.58C390.102 511.98 391.166 511.68 392.39 511.68C393.622 511.68 394.654 511.98 395.486 512.58C396.326 513.172 396.962 513.984 397.394 515.016C397.826 516.048 398.042 517.216 398.042 518.52C398.042 519.808 397.826 520.972 397.394 522.012C396.962 523.044 396.318 523.86 395.462 524.46C394.606 525.06 393.546 525.36 392.282 525.36ZM392.726 522.768C393.502 522.768 394.126 522.592 394.598 522.24C395.078 521.88 395.426 521.38 395.642 520.74C395.866 520.1 395.978 519.36 395.978 518.52C395.978 517.672 395.866 516.932 395.642 516.3C395.426 515.66 395.086 515.164 394.622 514.812C394.158 514.452 393.558 514.272 392.822 514.272C392.046 514.272 391.406 514.464 390.902 514.848C390.398 515.224 390.026 515.736 389.786 516.384C389.546 517.024 389.426 517.736 389.426 518.52C389.426 519.312 389.542 520.032 389.774 520.68C390.014 521.32 390.378 521.828 390.866 522.204C391.354 522.58 391.974 522.768 392.726 522.768ZM395.978 525V515.904H395.618V507.72H398.534V525H395.978ZM402.139 510.072V507.42H405.031V510.072H402.139ZM402.139 525V512.04H405.031V525H402.139ZM417.589 525V518.76C417.589 518.352 417.561 517.9 417.505 517.404C417.449 516.908 417.317 516.432 417.109 515.976C416.909 515.512 416.605 515.132 416.197 514.836C415.797 514.54 415.253 514.392 414.565 514.392C414.197 514.392 413.833 514.452 413.473 514.572C413.113 514.692 412.785 514.9 412.489 515.196C412.201 515.484 411.969 515.884 411.793 516.396C411.617 516.9 411.529 517.548 411.529 518.34L409.813 517.608C409.813 516.504 410.025 515.504 410.449 514.608C410.881 513.712 411.513 513 412.345 512.472C413.177 511.936 414.201 511.668 415.417 511.668C416.377 511.668 417.169 511.828 417.793 512.148C418.417 512.468 418.913 512.876 419.281 513.372C419.649 513.868 419.921 514.396 420.097 514.956C420.273 515.516 420.385 516.048 420.433 516.552C420.489 517.048 420.517 517.452 420.517 517.764V525H417.589ZM408.601 525V512.04H411.181V516.06H411.529V525H408.601ZM429.097 531.12C428.377 531.12 427.685 531.008 427.021 530.784C426.365 530.56 425.773 530.236 425.245 529.812C424.717 529.396 424.285 528.892 423.949 528.3L426.613 526.98C426.861 527.452 427.209 527.8 427.657 528.024C428.113 528.256 428.597 528.372 429.109 528.372C429.709 528.372 430.245 528.264 430.717 528.048C431.189 527.84 431.553 527.528 431.809 527.112C432.073 526.704 432.197 526.192 432.181 525.576V521.892H432.541V512.04H435.073V525.624C435.073 525.952 435.057 526.264 435.025 526.56C435.001 526.864 434.957 527.16 434.893 527.448C434.701 528.288 434.333 528.976 433.789 529.512C433.245 530.056 432.569 530.46 431.761 530.724C430.961 530.988 430.073 531.12 429.097 531.12ZM428.845 525.36C427.653 525.36 426.613 525.06 425.725 524.46C424.837 523.86 424.149 523.044 423.661 522.012C423.173 520.98 422.929 519.816 422.929 518.52C422.929 517.208 423.173 516.04 423.661 515.016C424.157 513.984 424.857 513.172 425.761 512.58C426.665 511.98 427.729 511.68 428.953 511.68C430.185 511.68 431.217 511.98 432.049 512.58C432.889 513.172 433.525 513.984 433.957 515.016C434.389 516.048 434.605 517.216 434.605 518.52C434.605 519.808 434.389 520.972 433.957 522.012C433.525 523.044 432.881 523.86 432.025 524.46C431.169 525.06 430.109 525.36 428.845 525.36ZM429.289 522.768C430.065 522.768 430.689 522.592 431.161 522.24C431.641 521.88 431.989 521.38 432.205 520.74C432.429 520.1 432.541 519.36 432.541 518.52C432.541 517.672 432.429 516.932 432.205 516.3C431.989 515.66 431.649 515.164 431.185 514.812C430.721 514.452 430.121 514.272 429.385 514.272C428.609 514.272 427.969 514.464 427.465 514.848C426.961 515.224 426.589 515.736 426.349 516.384C426.109 517.024 425.989 517.736 425.989 518.52C425.989 519.312 426.105 520.032 426.337 520.68C426.577 521.32 426.941 521.828 427.429 522.204C427.917 522.58 428.537 522.768 429.289 522.768ZM438.774 525V522.948H440.826V525H438.774ZM449.576 525V507.72H451.34V525H449.576ZM461.994 525C461.266 525.152 460.546 525.212 459.834 525.18C459.13 525.148 458.498 524.996 457.938 524.724C457.386 524.452 456.966 524.028 456.678 523.452C456.446 522.972 456.318 522.488 456.294 522C456.278 521.504 456.27 520.94 456.27 520.308V508.44H458.022V520.236C458.022 520.78 458.026 521.236 458.034 521.604C458.05 521.964 458.134 522.284 458.286 522.564C458.574 523.1 459.03 523.42 459.654 523.524C460.286 523.628 461.066 523.604 461.994 523.452V525ZM453.498 513.552V512.04H461.994V513.552H453.498ZM464.547 512.76L464.655 511.884C464.975 511.908 465.207 511.844 465.351 511.692C465.495 511.54 465.583 511.336 465.615 511.08C465.647 510.824 465.655 510.548 465.639 510.252H464.547V507.72H466.599V510.732C466.599 511.468 466.411 512.02 466.035 512.388C465.667 512.756 465.171 512.88 464.547 512.76ZM472.782 525.348C471.262 525.348 470.01 525.02 469.026 524.364C468.05 523.708 467.45 522.796 467.226 521.628L469.026 521.328C469.218 522.064 469.654 522.652 470.334 523.092C471.022 523.524 471.87 523.74 472.878 523.74C473.862 523.74 474.638 523.536 475.206 523.128C475.774 522.712 476.058 522.148 476.058 521.436C476.058 521.036 475.966 520.712 475.782 520.464C475.606 520.208 475.242 519.972 474.69 519.756C474.138 519.54 473.314 519.284 472.218 518.988C471.042 518.668 470.122 518.348 469.458 518.028C468.794 517.708 468.322 517.34 468.042 516.924C467.762 516.5 467.622 515.984 467.622 515.376C467.622 514.64 467.83 513.996 468.246 513.444C468.662 512.884 469.238 512.452 469.974 512.148C470.71 511.836 471.566 511.68 472.542 511.68C473.518 511.68 474.39 511.84 475.158 512.16C475.934 512.472 476.558 512.912 477.03 513.48C477.502 514.048 477.782 514.708 477.87 515.46L476.07 515.784C475.95 515.024 475.57 514.424 474.93 513.984C474.298 513.536 473.494 513.304 472.518 513.288C471.598 513.264 470.85 513.44 470.274 513.816C469.698 514.184 469.41 514.676 469.41 515.292C469.41 515.636 469.514 515.932 469.722 516.18C469.93 516.42 470.306 516.648 470.85 516.864C471.402 517.08 472.186 517.316 473.202 517.572C474.394 517.876 475.33 518.196 476.01 518.532C476.69 518.868 477.174 519.264 477.462 519.72C477.75 520.176 477.894 520.74 477.894 521.412C477.894 522.636 477.438 523.6 476.526 524.304C475.622 525 474.374 525.348 472.782 525.348ZM483.44 530.76V529.056H484.172C484.756 529.056 485.22 528.904 485.564 528.6C485.916 528.304 486.092 527.804 486.092 527.1V512.04H487.844V527.544C487.844 528.624 487.584 529.428 487.064 529.956C486.552 530.492 485.764 530.76 484.7 530.76H483.44ZM486.092 509.58V507.6H487.844V509.58H486.092ZM496.339 525.324C495.563 525.324 494.883 525.204 494.299 524.964C493.723 524.724 493.231 524.4 492.823 523.992C492.423 523.584 492.099 523.12 491.851 522.6C491.603 522.072 491.423 521.516 491.311 520.932C491.199 520.34 491.143 519.752 491.143 519.168V512.04H492.919V518.652C492.919 519.364 492.987 520.024 493.123 520.632C493.259 521.24 493.475 521.772 493.771 522.228C494.075 522.676 494.463 523.024 494.935 523.272C495.415 523.52 495.995 523.644 496.675 523.644C497.299 523.644 497.847 523.536 498.319 523.32C498.799 523.104 499.199 522.796 499.519 522.396C499.847 521.988 500.095 521.496 500.263 520.92C500.431 520.336 500.515 519.68 500.515 518.952L501.763 519.228C501.763 520.556 501.531 521.672 501.067 522.576C500.603 523.48 499.963 524.164 499.147 524.628C498.331 525.092 497.395 525.324 496.339 525.324ZM500.695 525V521.808H500.515V512.04H502.279V525H500.695ZM510.469 525.348C508.949 525.348 507.697 525.02 506.713 524.364C505.737 523.708 505.137 522.796 504.913 521.628L506.713 521.328C506.905 522.064 507.341 522.652 508.021 523.092C508.709 523.524 509.557 523.74 510.565 523.74C511.549 523.74 512.325 523.536 512.893 523.128C513.461 522.712 513.745 522.148 513.745 521.436C513.745 521.036 513.653 520.712 513.469 520.464C513.293 520.208 512.929 519.972 512.377 519.756C511.825 519.54 511.001 519.284 509.905 518.988C508.729 518.668 507.809 518.348 507.145 518.028C506.481 517.708 506.009 517.34 505.729 516.924C505.449 516.5 505.309 515.984 505.309 515.376C505.309 514.64 505.517 513.996 505.933 513.444C506.349 512.884 506.925 512.452 507.661 512.148C508.397 511.836 509.253 511.68 510.229 511.68C511.205 511.68 512.077 511.84 512.845 512.16C513.621 512.472 514.245 512.912 514.717 513.48C515.189 514.048 515.469 514.708 515.557 515.46L513.757 515.784C513.637 515.024 513.257 514.424 512.617 513.984C511.985 513.536 511.181 513.304 510.205 513.288C509.285 513.264 508.537 513.44 507.961 513.816C507.385 514.184 507.097 514.676 507.097 515.292C507.097 515.636 507.201 515.932 507.409 516.18C507.617 516.42 507.993 516.648 508.537 516.864C509.089 517.08 509.873 517.316 510.889 517.572C512.081 517.876 513.017 518.196 513.697 518.532C514.377 518.868 514.861 519.264 515.149 519.72C515.437 520.176 515.581 520.74 515.581 521.412C515.581 522.636 515.125 523.6 514.213 524.304C513.309 525 512.061 525.348 510.469 525.348ZM525.299 525C524.571 525.152 523.851 525.212 523.139 525.18C522.435 525.148 521.803 524.996 521.243 524.724C520.691 524.452 520.271 524.028 519.983 523.452C519.751 522.972 519.623 522.488 519.599 522C519.583 521.504 519.575 520.94 519.575 520.308V508.44H521.327V520.236C521.327 520.78 521.331 521.236 521.339 521.604C521.355 521.964 521.439 522.284 521.591 522.564C521.879 523.1 522.335 523.42 522.959 523.524C523.591 523.628 524.371 523.604 525.299 523.452V525ZM516.803 513.552V512.04H525.299V513.552H516.803ZM548.221 525V517.128C548.221 516.24 548.001 515.548 547.561 515.052C547.121 514.548 546.525 514.296 545.773 514.296C545.309 514.296 544.893 514.404 544.525 514.62C544.157 514.828 543.865 515.14 543.649 515.556C543.433 515.964 543.325 516.452 543.325 517.02L542.041 516.264C542.033 515.368 542.233 514.58 542.641 513.9C543.057 513.212 543.617 512.676 544.321 512.292C545.025 511.908 545.809 511.716 546.673 511.716C548.105 511.716 549.201 512.148 549.961 513.012C550.729 513.868 551.113 514.996 551.113 516.396V525H548.221ZM532.633 525V512.04H535.189V516.06H535.549V525H532.633ZM540.445 525V517.164C540.445 516.26 540.225 515.556 539.785 515.052C539.345 514.548 538.745 514.296 537.985 514.296C537.249 514.296 536.657 514.548 536.209 515.052C535.769 515.556 535.549 516.212 535.549 517.02L534.253 516.156C534.253 515.316 534.461 514.56 534.877 513.888C535.293 513.216 535.853 512.688 536.557 512.304C537.269 511.912 538.065 511.716 538.945 511.716C539.913 511.716 540.721 511.924 541.369 512.34C542.025 512.748 542.513 513.308 542.833 514.02C543.161 514.724 543.325 515.52 543.325 516.408V525H540.445ZM557.867 525.36C556.931 525.36 556.139 525.184 555.491 524.832C554.843 524.472 554.351 523.996 554.015 523.404C553.687 522.812 553.523 522.16 553.523 521.448C553.523 520.824 553.627 520.264 553.835 519.768C554.043 519.264 554.363 518.832 554.795 518.472C555.227 518.104 555.787 517.804 556.475 517.572C556.995 517.404 557.603 517.252 558.299 517.116C559.003 516.98 559.763 516.856 560.579 516.744C561.403 516.624 562.263 516.496 563.159 516.36L562.127 516.948C562.135 516.052 561.935 515.392 561.527 514.968C561.119 514.544 560.431 514.332 559.463 514.332C558.879 514.332 558.315 514.468 557.771 514.74C557.227 515.012 556.847 515.48 556.631 516.144L553.991 515.316C554.311 514.22 554.919 513.34 555.815 512.676C556.719 512.012 557.935 511.68 559.463 511.68C560.615 511.68 561.627 511.868 562.499 512.244C563.379 512.62 564.031 513.236 564.455 514.092C564.687 514.548 564.827 515.016 564.875 515.496C564.923 515.968 564.947 516.484 564.947 517.044V525H562.415V522.192L562.835 522.648C562.251 523.584 561.567 524.272 560.783 524.712C560.007 525.144 559.035 525.36 557.867 525.36ZM558.443 523.056C559.099 523.056 559.659 522.94 560.123 522.708C560.587 522.476 560.955 522.192 561.227 521.856C561.507 521.52 561.695 521.204 561.791 520.908C561.943 520.54 562.027 520.12 562.043 519.648C562.067 519.168 562.079 518.78 562.079 518.484L562.967 518.748C562.095 518.884 561.347 519.004 560.723 519.108C560.099 519.212 559.563 519.312 559.115 519.408C558.667 519.496 558.271 519.596 557.927 519.708C557.591 519.828 557.307 519.968 557.075 520.128C556.843 520.288 556.663 520.472 556.535 520.68C556.415 520.888 556.355 521.132 556.355 521.412C556.355 521.732 556.435 522.016 556.595 522.264C556.755 522.504 556.987 522.696 557.291 522.84C557.603 522.984 557.987 523.056 558.443 523.056ZM575.667 525C574.811 525.16 573.971 525.228 573.147 525.204C572.331 525.188 571.599 525.04 570.951 524.76C570.303 524.472 569.811 524.02 569.475 523.404C569.179 522.844 569.023 522.272 569.007 521.688C568.991 521.104 568.983 520.444 568.983 519.708V508.44H571.863V519.54C571.863 520.06 571.867 520.516 571.875 520.908C571.891 521.3 571.975 521.62 572.127 521.868C572.415 522.348 572.875 522.616 573.507 522.672C574.139 522.728 574.859 522.696 575.667 522.576V525ZM566.631 514.308V512.04H575.667V514.308H566.631ZM587.417 525V518.76C587.417 518.352 587.389 517.9 587.333 517.404C587.277 516.908 587.145 516.432 586.937 515.976C586.737 515.512 586.433 515.132 586.025 514.836C585.625 514.54 585.081 514.392 584.393 514.392C584.025 514.392 583.661 514.452 583.301 514.572C582.941 514.692 582.613 514.9 582.317 515.196C582.029 515.484 581.797 515.884 581.621 516.396C581.445 516.9 581.357 517.548 581.357 518.34L579.641 517.608C579.641 516.504 579.853 515.504 580.277 514.608C580.709 513.712 581.341 513 582.173 512.472C583.005 511.936 584.029 511.668 585.245 511.668C586.205 511.668 586.997 511.828 587.621 512.148C588.245 512.468 588.741 512.876 589.109 513.372C589.477 513.868 589.749 514.396 589.925 514.956C590.101 515.516 590.213 516.048 590.261 516.552C590.317 517.048 590.345 517.452 590.345 517.764V525H587.417ZM578.429 525V507.72H581.009V516.816H581.357V525H578.429ZM593.813 525V522.948H595.865V525H593.813Z" fill="white"/>
</svg>
