<svg width="64" height="64" viewBox="0 0 64 64" fill="none" xmlns="http://www.w3.org/2000/svg">
<rect width="64" height="64" fill="#171718"/>
<path d="M30.2795 12.0035L32.9882 12C32.8907 17.3263 32.743 20.6012 35.0314 25.6935C38.1518 32.6374 43.8378 37.5403 50.8907 40.2379C50.9321 37.7095 50.9322 35.1808 50.8904 32.6524L53.1476 32.6569C53.1081 35.3833 53.1361 38.1914 53.1339 40.9231C55.9588 41.5648 56.9774 41.8607 59.8993 42.0142C59.9458 42.8798 59.9678 43.7722 60 44.6406C57.4193 44.4831 55.6418 44.3229 53.1199 43.7017L53.1239 52.3146L50.8522 52.3251L50.8869 43.1266C42.2587 39.8022 35.4471 34.3399 31.9838 25.536C31.8451 25.1623 31.6654 24.7501 31.5131 24.3774C31.3227 24.8696 31.1207 25.3573 30.9074 25.8402C27.0567 34.6651 20.9425 39.6837 12.1458 43.123L12.1586 52.3376L9.95487 52.3406C9.91812 49.5057 9.96961 46.5491 9.97936 43.7047C7.59516 44.2359 5.42844 44.3911 3.0115 44.5436L3 42.0477C4.87101 41.9652 8.28133 41.522 9.96461 40.8328L9.93237 32.6541L12.1556 32.6601L12.1921 40.2224C16.1196 38.7533 19.6821 36.4499 22.6337 33.4713C26.6737 29.3768 29.3814 24.0792 30.152 18.3304C30.375 16.6664 30.2885 13.7933 30.2795 12.0035Z" fill="#27CFCE"/>
<path d="M50.8639 21.7487L53.1276 21.749L53.1668 29.5293L50.8599 29.5305L50.8639 21.7487Z" fill="#27CFCE"/>
<path d="M9.87298 21.756L12.059 21.7487L12.0702 29.5115L9.86499 29.5095L9.87298 21.756Z" fill="#27CFCE"/>
</svg>
