<svg width="1200" height="400" viewBox="0 0 1200 400" fill="none" xmlns="http://www.w3.org/2000/svg">
<rect width="1200" height="400" fill="#171718"/>
<path d="M766.679 176.232C766.901 176.476 767.123 176.719 767.345 176.963C767.645 198.654 767.517 244.065 767.478 263.02L757.755 263.058L757.835 254.695C747.074 267.572 732.277 266.868 719.511 257.643C707.939 247.234 706.146 226.325 716.848 214.764C721.793 209.454 728.594 206.256 735.838 205.836C744.443 205.407 750.879 208.005 757.184 213.75C757.66 201.988 757.478 189.435 757.499 177.61C760.924 176.848 763.175 176.597 766.679 176.232Z" fill="#FEFEFE"/>
<path d="M734.381 216.439C741.149 214.797 748.278 216.934 753.026 222.029C757.774 227.125 759.404 234.386 757.289 241.022C755.173 247.658 749.642 252.636 742.821 254.044C732.524 256.169 722.423 249.648 720.121 239.389C717.818 229.13 724.163 218.919 734.381 216.439Z" fill="#171718"/>
<path d="M807.862 205.304C824.288 203.994 838.682 216.212 840.058 232.633C841.434 249.054 829.275 263.497 812.86 264.939C796.351 266.39 781.807 254.146 780.423 237.631C779.038 221.116 791.342 206.621 807.862 205.304Z" fill="#FEFEFE"/>
<path d="M807.681 215.433C818.488 214.104 828.345 221.736 829.765 232.532C831.184 243.327 823.634 253.248 812.851 254.757C801.94 256.285 791.876 248.626 790.439 237.702C789.003 226.779 796.746 216.778 807.681 215.433Z" fill="#171718"/>
<path d="M892.878 207.189C896.272 207.095 899.239 207.242 902.625 207.401C902.793 225.638 903.122 244.803 902.785 262.98L892.872 263.024L892.878 255.096C892.539 255.487 892.195 255.876 891.847 256.26C887.234 261.343 881.491 264.304 874.619 264.315C854.276 264.345 852.61 251.223 852.637 235.603L852.762 207.578C856.057 207.52 859.485 207.569 862.792 207.569C862.92 216.47 861.271 242.1 864.779 249.042C866.038 251.531 868.203 252.932 870.833 253.715C875.471 255.095 881.478 254.299 885.603 251.771C895.697 245.586 892.263 225.241 892.323 214.709C892.335 212.525 892.097 209.836 892.67 207.754C892.724 207.561 892.809 207.377 892.878 207.189Z" fill="#FEFEFE"/>
<path d="M670.755 206.035C671.286 205.991 671.818 205.96 672.35 205.943C697.396 204.944 698.009 221.264 697.282 240.914C697.018 248.035 697.175 255.863 697.119 263.048L687.165 263.08C687.045 255.419 687.014 246.817 687.255 239.19C687.711 224.739 686.945 212.979 668.149 216.808C653.651 221.85 656.826 234.045 656.558 246.41C656.439 251.92 656.585 257.516 656.577 263.032L646.571 263.065L646.588 207.423C649.679 207.384 652.894 207.442 655.998 207.453L656.115 214.936C661.112 209.133 663.552 207.768 670.755 206.035Z" fill="#FEFEFE"/>
<path d="M581.036 207.173C584.259 207.09 587.523 207.208 590.75 207.279C591.124 219.665 589.932 232.471 591.099 244.733C592.67 256.775 608.291 256.668 615.296 250.104C622.33 243.513 620.497 232.575 620.662 223.895C620.765 218.478 620.638 212.829 620.632 207.379C623.963 207.256 627.527 207.314 630.878 207.313C630.931 213.046 630.826 218.968 630.795 224.716C630.672 237.468 630.906 250.152 630.673 262.942L620.973 263.036L620.97 254.573C620.195 255.456 619.406 256.326 618.602 257.183C611.2 265.03 597.651 267.327 588.632 260.831C579.136 253.993 580.898 240.543 580.847 230.34C580.809 222.75 580.887 214.858 581.036 207.173Z" fill="#FEFEFE"/>
<path d="M560.706 176.051C566.979 175.723 568.782 175.695 574.785 177.339C574.324 180.602 573.969 184 573.583 187.284C553.155 182.781 554.836 190.783 555.049 207.656C560.516 207.624 565.984 207.661 571.451 207.766L571.41 217.027L555.03 217.044L554.955 251.728L554.89 263.024L545.126 263.074L545.05 217.287L534.002 217.347L534.024 207.872C537.62 207.775 541.409 207.823 545.023 207.809C544.909 193.197 543.021 180.078 560.706 176.051Z" fill="#FEFEFE"/>
<path d="M932.914 191.189L934.575 191.075C936.242 193 935.465 204.184 935.385 207.522L953.209 207.51L953.215 217.095L935.713 217.082C935.852 226.22 934.876 238.774 936.012 247.689C937.095 256.182 947.491 254.217 953.758 252.526L953.875 262.646C927.08 269.332 924.284 254.955 925.363 232.981C925.601 228.138 925.372 222.034 925.376 217.131H914.575L914.572 207.448L925.244 207.476L925.263 192.166L932.914 191.189Z" fill="#FEFEFE"/>
<path d="M374.641 142.013L384.535 142C384.179 161.455 383.639 173.417 391.998 192.017C403.395 217.38 424.164 235.288 449.925 245.142C450.077 235.906 450.077 226.67 449.924 217.435L458.169 217.451C458.025 227.41 458.127 237.667 458.119 247.644C468.437 249.988 472.158 251.069 482.83 251.63C483 254.792 483.08 258.051 483.198 261.223C473.772 260.648 467.279 260.062 458.068 257.794L458.082 289.253L449.785 289.291L449.912 255.693C418.396 243.55 393.516 223.599 380.866 191.442C380.359 190.077 379.703 188.571 379.147 187.21C378.451 189.007 377.713 190.789 376.935 192.553C362.869 224.787 340.537 243.117 308.406 255.68L308.453 289.337L300.403 289.348C300.269 278.993 300.457 268.194 300.493 257.805C291.784 259.745 283.87 260.312 275.042 260.869L275 251.752C281.834 251.451 294.291 249.832 300.439 247.315L300.321 217.441L308.442 217.463L308.575 245.085C322.921 239.719 335.933 231.306 346.714 220.426C361.471 205.47 371.361 186.121 374.175 165.123C374.99 159.045 374.674 148.55 374.641 142.013Z" fill="#27CFCE"/>
<path d="M449.827 177.608L458.096 177.609L458.239 206.027L449.813 206.032L449.827 177.608Z" fill="#27CFCE"/>
<path d="M300.105 177.635L308.089 177.608L308.13 205.963L300.075 205.955L300.105 177.635Z" fill="#27CFCE"/>
</svg>
